<svg xmlns="http://www.w3.org/2000/svg" xmlns:xlink="http://www.w3.org/1999/xlink" version="1.1" id="layer1" x="0px" y="0px" width="100px" height="100px" viewBox="0 0 100 100" enable-background="new 0 0 100 100" xml:space="preserve" xmlns:xml="http://www.w3.org/XML/1998/namespace">
<path fill="#B2B2B2" d="M100,51c0,28.2-22.4,49-50,49C22.4,100,0,79.2,0,51C0,22.8,22.4,0,50,0C77.6,0,100,22.8,100,51z"/>
<path d="M67.8 84L56.6 84 45.6 61.7 34.5 59.6 36.4 63.4 34.4 64.4 44.7 84 32 84 29.6 86 70.2 86z"/>
<path fill="none" d="M34.5,49.3l1.9-2.2l-0.7-0.5C35.7,46.7,34.8,48.7,34.5,49.3z"/>
<path d="M60.7,13.9c-6.4,3.1-7.7,4-7.7,4c-4.3,3-4,2.7-9.7,6.6c-6.4,4.3-7.8,3.5-9.2,4.9c-1.4,1.4-0.1,0-1.8,2.2  c-1.2,1.6-1.4,11.2-2,13.7c-0.6,2.4-2.5,6.1-1.7,11c0.6,3.9-0.9,4.6,0.5,6.2c1.5,1.6,3.3-1.1,3.3-1.1s1.8-3.1,1.6-3.6  c-0.2-0.5,1.5,1.5,4.2-1.3c2.6-2.8,2-0.8,3.7-3.7l2.6-2.6c0,0,5.1-0.8,4.7-3.2c1.4-1.2,0.9,0.1,3.9-4.5c3-4.7,0.7-0.3,7.7-6.8  c7-6.4,3.8-7.3,8.5-9c0.9-0.3,1.6-0.6,2.3-0.9V9C70.6,9.3,66.4,11.2,60.7,13.9z M34.5,50c0.3-0.7,1.3-4.9,1.3-4.9l1.1,1.5L34.5,50z"/>
<path stroke="#000000" stroke-width="0.2" stroke-miterlimit="10" d="M60.7,13.9c-6.4,3.1-7.7,4-7.7,4  c-4.3,3-4,2.7-9.7,6.6c-6.4,4.3-7.8,3.5-9.2,4.9c-1.4,1.4-0.1,0-1.8,2.2c-1.2,1.6-1.4,11.2-2,13.7c-0.6,2.4-2.5,6.1-1.7,11  c0.6,3.9-0.9,4.6,0.5,6.2c1.5,1.6,3.3-1.1,3.3-1.1s1.8-3.1,1.6-3.6c-0.2-0.5,1.5,1.5,4.2-1.3c2.6-2.8,2-0.8,3.7-3.7l2.6-2.6  c0,0,5.1-0.8,4.7-3.2c1.4-1.2,0.9,0.1,3.9-4.5c3-4.7,0.7-0.3,7.7-6.8c7-6.4,3.8-7.3,8.5-9c0.9-0.3,1.6-0.6,2.3-0.9V9  C70.6,9.3,66.4,11.2,60.7,13.9z M34.5,50c0.3-0.7,1.3-4.9,1.3-4.9l1.1,1.5L34.5,50z"/>
<path fill="none" stroke="#000000" stroke-width="1.0166" stroke-linejoin="round" d="M75.1 87.3L75.5 87.7 75 87.7z"/>
<path d="M74,88h-1v-1h1V88z M72,88h-1v-1h1V88z M70,88h-1v-1h1V88z M68,88h-1v-1h1V88z M66,88h-1v-1h1V88z M64,88h-1v-1h1V88z   M62,88h-1v-1h1V88z M60,88h-1v-1h1V88z M58,88h-1v-1h1V88z M56,88h-1v-1h1V88z M54,88h-1v-1h1V88z M52,88h-1v-1h1V88z M50,88h-1v-1  h1V88z M48,88h-1v-1h1V88z M46,88h-1v-1h1V88z M44,88h-1v-1h1V88z M42,88h-1v-1h1V88z M40,88h-1v-1h1V88z M38,88h-1v-1h1V88z M36,88  h-1v-1h1V88z M34,88h-1v-1h1V88z M32,88h-1v-1h1V88z M30,88h-1v-1h1V88z M28,88h-1v-1h1V88z M26,88h-1v-1h1V88z"/>
<path fill="none" stroke="#000000" stroke-width="1.0166" stroke-linejoin="round" d="M23.8 87.7L23.3 87.7 23.7 87.4z"/>
<path d="M24.9,87.1l-0.6-0.8l0.8-0.6l0.6,0.8L24.9,87.1z M74,87l-0.8-0.7l0.7-0.7l0.8,0.7L74,87z M26.5,85.9l-0.6-0.8l0.8-0.6  l0.6,0.8L26.5,85.9z M72.5,85.6l-0.8-0.7l0.7-0.7l0.8,0.7L72.5,85.6z M28.2,84.7l-0.6-0.8l0.8-0.6l0.6,0.8L28.2,84.7z M71,84.2  l-0.8-0.7l0.7-0.7l0.8,0.7L71,84.2z M29.9,83.4l-0.6-0.8l0.7-0.5c0.1-0.1,0.2-0.1,0.3-0.1h0.1v0.7l0.2,0.2L29.9,83.4z M69.7,83h-1  v-1h1V83z M67.7,83h-1v-1h1V83z M65.6,83h-1v-1h1V83z M63.5,83h-1v-1h1V83z M61.5,83h-1v-1h1V83z M59.4,83h-1v-1h1V83z M57.3,83h-1  v-1h1V83z M55.3,83h-1v-1h1V83z M53.2,83h-1v-1h1V83z M51.1,83h-1v-1h1V83z M49,83h-1v-1h1V83z M47,83h-1v-1h1V83z M44.9,83h-1v-1h1  V83z M42.8,83h-1v-1h1V83z M40.8,83h-1v-1h1V83z M38.7,83h-1v-1h1V83z M36.6,83h-1v-1h1V83z M34.6,83h-1v-1h1V83z M32.5,83h-1v-1h1  V83z"/>
</svg>