<?xml version="1.0" encoding="utf-8"?>
<!-- Generator: Adobe Illustrator 16.0.0, SVG Export Plug-In . SVG Version: 6.00 Build 0)  -->
<!DOCTYPE svg PUBLIC "-//W3C//DTD SVG 1.1//EN" "http://www.w3.org/Graphics/SVG/1.1/DTD/svg11.dtd">
<svg version="1.1" id="レイヤー_1" xmlns="http://www.w3.org/2000/svg" xmlns:xlink="http://www.w3.org/1999/xlink" x="0px"
	 y="0px" width="100px" height="100px" viewBox="0 0 100 100" enable-background="new 0 0 100 100" xml:space="preserve">
<g>
	<path fill="#B2B2B2" d="M100,51.021C100,79.198,77.614,100,50,100S0,79.198,0,51.021S22.386,0,50,0S100,22.843,100,51.021z"/>
	<polygon points="67.8,84 56.618,84 45.551,61.719 34.467,59.6 36.42,63.355 34.408,64.38 44.674,84 32,84 29.6,86 70.2,86 	"/>
	<g>
	</g>
	<g>
		<path fill="none" d="M34.467,49.348l1.866-2.214l-0.666-0.467C35.667,46.667,34.8,48.667,34.467,49.348z"/>
		<g>
			<g>
				<g>
					<g>
						<path d="M60.722,13.93c-6.435,3.13-7.652,4-7.652,4c-4.32,2.956-4.005,2.734-9.739,6.608c-6.435,4.348-7.826,3.479-9.217,4.87
							c-1.392,1.391-0.11,0.041-1.78,2.191c-1.243,1.602-1.373,11.232-2,13.667c-0.626,2.435-2.533,6.134-1.733,11
							c0.635,3.856-0.927,4.635,0.534,6.2c1.46,1.565,3.333-1.066,3.333-1.066s1.773-3.148,1.6-3.601s1.544,1.532,4.152-1.251
							c2.609-2.782,1.976-0.792,3.715-3.749l2.601-2.645c0,0,5.121-0.784,4.666-3.155c1.392-1.217,0.913,0.148,3.869-4.548
							c2.957-4.695,0.696-0.348,7.652-6.783c6.956-6.435,3.826-7.304,8.521-9.043c0.856-0.317,1.591-0.623,2.257-0.929V8.963
							C70.61,9.344,66.416,11.16,60.722,13.93z M34.467,50c0.333-0.681,1.346-4.875,1.346-4.875l1.062,1.542L34.467,50z"/>
					</g>
				</g>
			</g>
			<g>
				<g>
					<g>
						<path fill="none" stroke="#000000" stroke-width="0.2" stroke-miterlimit="10" d="M60.722,13.93c-6.435,3.13-7.652,4-7.652,4
							c-4.32,2.956-4.005,2.734-9.739,6.608c-6.435,4.348-7.826,3.479-9.217,4.87c-1.392,1.391-0.11,0.041-1.78,2.191
							c-1.243,1.602-1.373,11.232-2,13.667c-0.626,2.435-2.533,6.134-1.733,11c0.635,3.856-0.927,4.635,0.534,6.2
							c1.46,1.565,3.333-1.066,3.333-1.066s1.773-3.148,1.6-3.601s1.544,1.532,4.152-1.251c2.609-2.782,1.976-0.792,3.715-3.749
							l2.601-2.645c0,0,5.121-0.784,4.666-3.155c1.392-1.217,0.913,0.148,3.869-4.548c2.957-4.695,0.696-0.348,7.652-6.783
							c6.956-6.435,3.826-7.304,8.521-9.043c0.856-0.317,1.591-0.623,2.257-0.929V8.963C70.61,9.344,66.416,11.16,60.722,13.93z
							 M34.467,50c0.333-0.681,1.346-4.875,1.346-4.875l1.062,1.542L34.467,50z"/>
					</g>
				</g>
			</g>
		</g>
	</g>
	<g>
		<g>
			<polyline fill="none" stroke="#000000" stroke-width="1.0166" stroke-linejoin="round" points="75.124,87.324 75.5,87.667 
				74.992,87.667 			"/>
			<line fill="none" stroke="#000000" stroke-linejoin="round" stroke-dasharray="1,1" x1="74" y1="87.5" x2="24" y2="87.5"/>
			<polyline fill="none" stroke="#000000" stroke-width="1.0166" stroke-linejoin="round" points="23.842,87.667 23.333,87.667 
				23.742,87.364 			"/>
			<polyline fill="none" stroke="#000000" stroke-linejoin="round" stroke-dasharray="1.0351,1.0351" points="24.572,86.746 
				30.287,82.5 69.83,82.5 74.742,86.976 			"/>
		</g>
	</g>
</g>
</svg>
