<?xml version="1.0" encoding="utf-8"?>
<!-- Generator: Adobe Illustrator 16.0.0, SVG Export Plug-In . SVG Version: 6.00 Build 0)  -->
<!DOCTYPE svg PUBLIC "-//W3C//DTD SVG 1.1//EN" "http://www.w3.org/Graphics/SVG/1.1/DTD/svg11.dtd">
<svg version="1.1" id="レイヤー_1" xmlns="http://www.w3.org/2000/svg" xmlns:xlink="http://www.w3.org/1999/xlink" x="0px"
	 y="0px" width="100px" height="100px" viewBox="0 0 100 100" enable-background="new 0 0 100 100" xml:space="preserve">
<g>
	<path fill="#B2B2B2" d="M100,51.021C100,79.197,77.613,100,50,100C22.386,100,0,79.197,0,51.021C0,22.844,22.386,0,50,0
		C77.613,0,100,22.843,100,51.021z"/>
	<polygon points="67.8,84 56.618,84 45.551,61.719 34.467,59.6 36.42,63.355 34.408,64.38 44.674,84 32,84 29.6,86 70.2,86 	"/>
	<g>
		<path fill="none" d="M34.467,49.348l1.866-2.214l-0.666-0.467C35.667,46.667,34.8,48.667,34.467,49.348z"/>
		<g>
			<g>
				<g>
					<g>
						<path d="M60.723,13.93c-6.436,3.13-7.652,4-7.652,4c-4.32,2.956-4.005,2.734-9.739,6.608c-6.435,4.348-7.826,3.479-9.217,4.87
							c-1.392,1.391-0.11,0.041-1.78,2.191c-1.243,1.602-1.373,11.232-2,13.667c-0.626,2.435-2.533,6.134-1.733,11
							c0.635,3.856-0.927,4.635,0.534,6.2c1.46,1.565,3.333-1.065,3.333-1.065s1.773-3.148,1.6-3.602
							c-0.173-0.453,1.544,1.532,4.152-1.251c2.609-2.782,1.976-0.792,3.715-3.749l2.601-2.645c0,0,5.121-0.784,4.666-3.155
							c1.392-1.217,0.913,0.148,3.868-4.548c2.957-4.695,0.697-0.348,7.652-6.783c6.957-6.435,3.826-7.304,8.521-9.043
							c0.855-0.317,1.591-0.623,2.257-0.929V8.963C70.609,9.344,66.416,11.16,60.723,13.93z M34.467,50
							c0.333-0.681,1.346-4.875,1.346-4.875l1.062,1.542L34.467,50z"/>
					</g>
				</g>
			</g>
			<g>
				<g>
					<g>
						<path fill="none" stroke="#000000" stroke-width="0.2" stroke-miterlimit="10" d="M60.723,13.93c-6.436,3.13-7.652,4-7.652,4
							c-4.32,2.956-4.005,2.734-9.739,6.608c-6.435,4.348-7.826,3.479-9.217,4.87c-1.392,1.391-0.11,0.041-1.78,2.191
							c-1.243,1.602-1.373,11.232-2,13.667c-0.626,2.435-2.533,6.134-1.733,11c0.635,3.856-0.927,4.635,0.534,6.2
							c1.46,1.565,3.333-1.065,3.333-1.065s1.773-3.148,1.6-3.602c-0.173-0.453,1.544,1.532,4.152-1.251
							c2.609-2.782,1.976-0.792,3.715-3.749l2.601-2.645c0,0,5.121-0.784,4.666-3.155c1.392-1.217,0.913,0.148,3.868-4.548
							c2.957-4.695,0.697-0.348,7.652-6.783c6.957-6.435,3.826-7.304,8.521-9.043c0.855-0.317,1.591-0.623,2.257-0.929V8.963
							C70.609,9.344,66.416,11.16,60.723,13.93z M34.467,50c0.333-0.681,1.346-4.875,1.346-4.875l1.062,1.542L34.467,50z"/>
					</g>
				</g>
			</g>
		</g>
	</g>
	<g>
		<g>
			<path d="M75.5,88.176h-0.508v-0.284L74.781,87.7l0.211-0.231v-0.31h0.283l0.191-0.211l0.376,0.343
				c0.154,0.142,0.207,0.364,0.131,0.56C75.898,88.046,75.71,88.176,75.5,88.176z"/>
			<path d="M74,88h-1v-1h1V88z M72,88h-1v-1h1V88z M70,88h-1v-1h1V88z M68,88h-1v-1h1V88z M66,88h-1v-1h1V88z M64,88h-1v-1h1V88z
				 M62,88h-1v-1h1V88z M60,88h-1v-1h1V88z M58,88h-1v-1h1V88z M56,88h-1v-1h1V88z M54,88h-1v-1h1V88z M52,88h-1v-1h1V88z M50,88h-1
				v-1h1V88z M48,88h-1v-1h1V88z M46,88h-1v-1h1V88z M44,88h-1v-1h1V88z M42,88h-1v-1h1V88z M40,88h-1v-1h1V88z M38,88h-1v-1h1V88z
				 M36,88h-1v-1h1V88z M34,88h-1v-1h1V88z M32,88h-1v-1h1V88z M30,88h-1v-1h1V88z M28,88h-1v-1h1V88z M26,88h-1v-1h1V88z"/>
			<path d="M23.842,88.176h-0.509c-0.219,0-0.414-0.141-0.482-0.35c-0.069-0.208,0.003-0.437,0.18-0.567l0.409-0.304l0.151,0.204
				h0.251v0.338l0.203,0.274l-0.203,0.151V88.176z"/>
			<path d="M24.87,87.147l-0.597-0.803l0.831-0.617l0.597,0.803L24.87,87.147z M74.021,86.996l-0.765-0.697l0.674-0.738l0.765,0.697
				L74.021,86.996z M26.532,85.913l-0.597-0.803l0.831-0.617l0.597,0.803L26.532,85.913z M72.491,85.602l-0.765-0.697l0.674-0.738
				l0.765,0.697L72.491,85.602z M28.194,84.679l-0.597-0.803l0.831-0.618l0.597,0.803L28.194,84.679z M70.962,84.208l-0.766-0.697
				l0.674-0.74l0.766,0.697L70.962,84.208z M29.855,83.443l-0.596-0.803l0.73-0.542C30.075,82.034,30.18,82,30.287,82h0.125v0.669
				l0.172,0.232L29.855,83.443z M69.747,83h-1.035v-1h1.035V83z M67.677,83h-1.035v-1h1.035V83z M65.606,83h-1.035v-1h1.035V83z
				 M63.536,83h-1.035v-1h1.035V83z M61.466,83h-1.035v-1h1.035V83z M59.396,83H58.36v-1h1.035V83z M57.325,83H56.29v-1h1.035V83z
				 M55.255,83H54.22v-1h1.035V83z M53.185,83H52.15v-1h1.034V83z M51.115,83H50.08v-1h1.036V83z M49.044,83h-1.035v-1h1.035V83z
				 M46.975,83h-1.035v-1h1.035V83z M44.904,83h-1.035v-1h1.035V83z M42.834,83h-1.035v-1h1.035V83z M40.764,83h-1.035v-1h1.035V83z
				 M38.694,83h-1.035v-1h1.035V83z M36.624,83h-1.035v-1h1.035V83z M34.553,83h-1.035v-1h1.035V83z M32.483,83h-1.035v-1h1.035V83z
				"/>
		</g>
	</g>
</g>
</svg>
