<?xml version="1.0" encoding="utf-8"?>
<!-- Generator: Adobe Illustrator 16.0.0, SVG Export Plug-In . SVG Version: 6.00 Build 0)  -->
<!DOCTYPE svg PUBLIC "-//W3C//DTD SVG 1.1//EN" "http://www.w3.org/Graphics/SVG/1.1/DTD/svg11.dtd">
<svg version="1.1" id="layer1" xmlns="http://www.w3.org/2000/svg" xmlns:xlink="http://www.w3.org/1999/xlink" x="0px" y="0px"
	 width="100px" height="100px" viewBox="0 0 100 100" enable-background="new 0 0 100 100" xml:space="preserve">
<circle fill="#B2B2B2" cx="50" cy="50" r="50"/>
<path fill="none" d="M34.5,49.3l1.9-2.2l-0.7-0.5C35.7,46.7,34.8,48.7,34.5,49.3z"/>
<path d="M67.8,84H56.6c0,0-10.1-21.5-11.1-22.3s-11.1-2.1-11.1-2.1l2,3.8l-2,1L44.7,84H32l-2.4,2h40.6L67.8,84z"/>
<path d="M60.7,13.9c-6.4,3.1-7.7,4-7.7,4c-4.3,3-4,2.7-9.7,6.6c-6.4,4.3-7.8,3.5-9.2,4.9c-1.4,1.4-0.1,0-1.8,2.2
	c-1.2,1.6-1.4,11.2-2,13.7c-0.6,2.4-2.5,6.1-1.7,11c0.6,3.9-0.9,4.6,0.5,6.2c1.5,1.6,3.3-1.1,3.3-1.1s1.8-3.1,1.6-3.6
	c-0.2-0.5,1.5,1.5,4.2-1.3c2.6-2.8,2-0.8,3.7-3.7l2.6-2.6c0,0,5.1-0.8,4.7-3.2c1.4-1.2,0.9,0.1,3.9-4.5c3-4.7,0.7-0.3,7.7-6.8
	c7-6.4,3.8-7.3,8.5-9c0.9-0.3,1.6-0.6,2.3-0.9V9C70.6,9.3,66.4,11.2,60.7,13.9z M34.5,50c0.3-0.7,1.3-4.9,1.3-4.9l1.1,1.5L34.5,50z"
	/>
<path d="M30.2,63.1C30.2,63.1,30.2,63.1,30.2,63.1c-0.4,0-0.8-0.2-1.1-0.5c-0.8-0.9-0.7-1.5-0.6-2.5c0.1-0.8,0.3-2,0-3.7
	c-0.6-3.8,0.4-7,1.2-9.3c0.2-0.6,0.4-1.2,0.5-1.8c0.2-0.9,0.4-2.9,0.6-5.1c0.3-3.6,0.6-7.6,1.4-8.6c0.8-1,0.9-1.2,1-1.3
	c0.1-0.1,0.1-0.1,0.4-0.4c0.1-0.1,0.2-0.2,0.4-0.4c0.6-0.6,1.1-0.8,2-1.1c1.3-0.5,3.4-1.2,7.2-3.8l2.8-1.9c3-2.1,3.5-2.4,7-4.7
	c0,0,1.3-0.9,7.7-4c5.8-2.8,10-4.6,10.8-5l0.1-0.1v16.9l-0.1,0c-0.7,0.3-1.4,0.6-2.3,0.9c-2.4,0.9-2.7,1.5-3.4,2.8
	c-0.7,1.2-1.7,3.1-5.1,6.2c-3.5,3.2-4.6,3.7-5.3,4.1c-0.7,0.3-0.8,0.4-2.3,2.7c-2.2,3.5-2.5,3.6-3.1,4c-0.2,0.1-0.4,0.2-0.8,0.5
	c0.1,0.4,0,0.8-0.3,1.2c-1,1.4-4.1,2-4.4,2L42,52.9c-1,1.6-1.2,1.8-1.7,2c-0.4,0.2-0.9,0.5-2,1.7c-1,1-1.9,1.5-2.9,1.5
	c-0.6,0-1-0.2-1.2-0.3c0,0,0,0,0,0c0,0.7-1.3,3.1-1.6,3.6C32.5,61.5,31.4,63.1,30.2,63.1z M71.4,9.1c-1.1,0.5-5.1,2.2-10.6,4.9
	c-6.3,3.1-7.6,4-7.6,4c-3.5,2.4-3.9,2.7-7,4.7l-2.8,1.9c-3.9,2.6-5.9,3.3-7.3,3.8c-0.9,0.3-1.4,0.5-1.9,1c-0.2,0.2-0.3,0.3-0.4,0.4
	c-0.3,0.3-0.3,0.3-0.3,0.4c-0.1,0.1-0.2,0.4-1,1.4c-0.8,1-1.1,5-1.4,8.5c-0.2,2.2-0.4,4.2-0.6,5.1c-0.1,0.5-0.3,1.1-0.6,1.8
	c-0.8,2.3-1.8,5.4-1.2,9.2c0.3,1.8,0.1,2.9,0,3.8c-0.1,1-0.2,1.6,0.5,2.4c0.3,0.3,0.6,0.5,1,0.5c1.1,0,2.2-1.5,2.2-1.5
	c0.7-1.3,1.7-3.2,1.6-3.5c0,0,0-0.1,0-0.2l0,0l0.1,0c0.1,0,0.1,0,0.2,0.1c0.2,0.1,0.6,0.3,1.1,0.3c0.9,0,1.8-0.5,2.7-1.5
	c1.2-1.3,1.7-1.6,2.1-1.8c0.4-0.2,0.7-0.4,1.6-2l2.6-2.7l0,0c0,0,3.3-0.5,4.3-1.9c0.2-0.3,0.3-0.7,0.3-1.1l0-0.1l0,0
	c0.4-0.3,0.6-0.5,0.8-0.6c0.5-0.3,0.9-0.5,3-3.9c1.5-2.4,1.7-2.5,2.4-2.8c0.7-0.3,1.8-0.8,5.3-4c3.4-3.1,4.4-5,5-6.2
	c0.7-1.3,1.1-2,3.5-2.9c0.8-0.3,1.5-0.6,2.2-0.9V9.1z M34.5,50.1L34.4,50c0.3-0.7,1.3-4.8,1.3-4.9l0.1-0.2l1.2,1.8L34.5,50.1z
	 M35.9,45.4c-0.2,0.7-0.7,2.8-1.1,4l2-2.7L35.9,45.4z"/>
<path d="M75.5,88.2H75v-0.3l-0.2-0.2l0.2-0.2v-0.3h0.3l0.2-0.2l0.4,0.3c0.2,0.1,0.2,0.4,0.1,0.6C75.9,88,75.7,88.2,75.5,88.2z"/>
<path d="M74,88h-1v-1h1V88z M72,88h-1v-1h1V88z M70,88h-1v-1h1V88z M68,88h-1v-1h1V88z M66,88h-1v-1h1V88z M64,88h-1v-1h1V88z
	 M62,88h-1v-1h1V88z M60,88h-1v-1h1V88z M58,88h-1v-1h1V88z M56,88h-1v-1h1V88z M54,88h-1v-1h1V88z M52,88h-1v-1h1V88z M50,88h-1v-1
	h1V88z M48,88h-1v-1h1V88z M46,88h-1v-1h1V88z M44,88h-1v-1h1V88z M42,88h-1v-1h1V88z M40,88h-1v-1h1V88z M38,88h-1v-1h1V88z M36,88
	h-1v-1h1V88z M34,88h-1v-1h1V88z M32,88h-1v-1h1V88z M30,88h-1v-1h1V88z M28,88h-1v-1h1V88z M26,88h-1v-1h1V88z"/>
<path d="M23.8,88.2h-0.5c-0.2,0-0.4-0.1-0.5-0.3c-0.1-0.2,0-0.4,0.2-0.6l0.4-0.3l0.2,0.2h0.3v0.3l0.2,0.3l-0.2,0.2V88.2z"/>
<path d="M24.9,87.1l-0.6-0.8l0.8-0.6l0.6,0.8L24.9,87.1z M74,87l-0.8-0.7l0.7-0.7l0.8,0.7L74,87z M26.5,85.9l-0.6-0.8l0.8-0.6
	l0.6,0.8L26.5,85.9z M72.5,85.6l-0.8-0.7l0.7-0.7l0.8,0.7L72.5,85.6z M28.2,84.7l-0.6-0.8l0.8-0.6l0.6,0.8L28.2,84.7z M71,84.2
	l-0.8-0.7l0.7-0.7l0.8,0.7L71,84.2z M29.9,83.4l-0.6-0.8l0.7-0.5c0.1-0.1,0.2-0.1,0.3-0.1h0.1v0.7l0.2,0.2L29.9,83.4z M69.7,83h-1
	v-1h1V83z M67.7,83h-1v-1h1V83z M65.6,83h-1v-1h1V83z M63.5,83h-1v-1h1V83z M61.5,83h-1v-1h1V83z M59.4,83h-1v-1h1V83z M57.3,83h-1
	v-1h1V83z M55.3,83h-1v-1h1V83z M53.2,83h-1v-1h1V83z M51.1,83h-1v-1h1V83z M49,83h-1v-1h1V83z M47,83h-1v-1h1V83z M44.9,83h-1v-1h1
	V83z M42.8,83h-1v-1h1V83z M40.8,83h-1v-1h1V83z M38.7,83h-1v-1h1V83z M36.6,83h-1v-1h1V83z M34.6,83h-1v-1h1V83z M32.5,83h-1v-1h1
	V83z"/>
</svg>
